<?xml version="1.0" encoding="UTF-8" standalone="no"?>
<!DOCTYPE svg PUBLIC "-//W3C//DTD SVG 1.1//EN" "http://www.w3.org/Graphics/SVG/1.1/DTD/svg11.dtd">
<svg width="100%" height="100%" viewBox="0 0 13210 2745" version="1.1" xmlns="http://www.w3.org/2000/svg" xmlns:xlink="http://www.w3.org/1999/xlink" xml:space="preserve" xmlns:serif="http://www.serif.com/" style="fill-rule:evenodd;clip-rule:evenodd;stroke-linejoin:round;stroke-miterlimit:2;">
    <g transform="matrix(1,0,0,1,-3313.1,-4557.55)">
        <g transform="matrix(4.16667,0,0,4.16667,0,0)">
            <g transform="matrix(0.509335,0,0,0.509335,-136.021,622.943)">
                <path d="M3008.09,924.951L2500.01,1439.62L1991.92,924.951L1828.67,924.951L1828.67,2208.92L2123.34,2208.92L2123.34,1397.29L2288.59,1397.29L2680.84,1917.36L2680.84,1397.29L2876.66,1397.29L2876.66,2208.92L3171.33,2208.92L3171.33,924.951L3008.09,924.951Z" style="fill:rgb(34,87,81);fill-rule:nonzero;"/>
                <path d="M3008.09,924.48L3007.76,924.62L2500.01,1438.95C2500.01,1438.95 1992.26,924.62 1992.26,924.62L1991.92,924.48L1828.67,924.48L1828.2,924.951L1828.2,2208.92L1828.67,2209.39L2123.34,2209.39L2123.81,2208.92L2123.81,1397.76C2123.81,1397.76 2288.36,1397.76 2288.36,1397.76C2288.36,1397.76 2680.46,1917.64 2680.46,1917.64L2681.31,1917.36L2681.31,1397.76C2691.57,1397.76 2865.93,1397.76 2876.19,1397.76C2876.19,1419.82 2876.19,2208.92 2876.19,2208.92L2876.66,2209.39L3171.33,2209.39L3171.8,2208.92L3171.8,924.951L3171.33,924.48L3008.09,924.48ZM3008.09,924.951L2500.01,1439.62L1991.92,924.951L1828.67,924.951L1828.67,2208.92L2123.34,2208.92L2123.34,1397.29L2288.59,1397.29L2680.84,1917.36L2680.84,1397.29L2876.66,1397.29L2876.66,2208.92L3171.33,2208.92L3171.33,924.951L3008.09,924.951Z"/>
            </g>
            <g transform="matrix(0.24,0,0,0.24,-368.921,-240.943)">
                <text x="7813.56px" y="8286.45px" style="font-family:'Poppins-Black', 'Poppins';font-weight:900;font-size:2842.98px;fill:rgb(37,37,37);">NOMIX</text>
            </g>
        </g>
    </g>
</svg>
