<?xml version="1.0" encoding="UTF-8" standalone="no"?>
<!DOCTYPE svg PUBLIC "-//W3C//DTD SVG 1.1//EN" "http://www.w3.org/Graphics/SVG/1.1/DTD/svg11.dtd">
<svg width="100%" height="100%" viewBox="0 0 5230 5230" version="1.1" xmlns="http://www.w3.org/2000/svg" xmlns:xlink="http://www.w3.org/1999/xlink" xml:space="preserve" xmlns:serif="http://www.serif.com/" style="fill-rule:evenodd;clip-rule:evenodd;stroke-linejoin:round;stroke-miterlimit:2;">
    <g transform="matrix(1,0,0,1,-2214.14,-4663.95)">
        <g>
            <path d="M4829.1,4663.95C6272.33,4663.95 7444.06,5835.68 7444.06,7278.91C7444.06,8722.15 6272.33,9893.87 4829.1,9893.87C3385.86,9893.87 2214.14,8722.15 2214.14,7278.91C2214.14,5835.68 3385.86,4663.95 4829.1,4663.95ZM3112.82,6288L3112.82,8269.82L3494.22,8490.01L3494.22,6508.21L3875.62,6288L3875.62,8710.21L4257.03,8930.42L4257.03,6067.81L4638.43,5847.62L4638.43,9150.63L4829.1,9260.72L5019.76,9150.63L5019.76,5407.23L4829.1,5297.11L3112.82,6288ZM5782.57,8710.2L5401.16,8930.41L5401.16,5627.41L5782.57,5847.62L6163.97,7141.33L6163.97,6067.81L6545.38,6288L6545.38,8269.82L6163.97,8490.01L5782.57,7196.35L5782.57,8710.2Z" style="fill:rgb(63,190,167);"/>
        </g>
    </g>
</svg>
